# xmcd
#
# Track frame offsets:
#	150
#	19346
#	39423
#	61937
#	84402
#	105332
#	125458
#	143797
#	165469
#	187950
#
# Disc length: 2718 seconds
#
# Revision: 1
# Processed by: cddbd v1.5.2PL0 Copyright (c) Steve Scherf et al.
# Submitted via: audiograbber 1.83.01
#
DISCID=760a9c0a
DTITLE=N'Klabe - I Love Salsa!
DYEAR=2005
DGENRE=Salsa
TTITLE0=I Love Salsa!
TTITLE1=Evitaré
TTITLE2=La Salsa De Puerto Rico
TTITLE3=Quizas
TTITLE4=Llegaste A Tiempo
TTITLE5=Amor De Una Noche
TTITLE6=Tiempo
TTITLE7=Polos Opuestos
TTITLE8=La Favorita
TTITLE9=Amor De Una Noche (Balada)
EXTD=
EXTT0=
EXTT1=
EXTT2=
EXTT3=
EXTT4=
EXTT5=
EXTT6=
EXTT7=
EXTT8=
EXTT9=
PLAYORDER=
